HIERARCHY
ROOT root
{
	OFFSET 0.000000 0.000000 0.000000
	CHANNELS 6 Xposition Yposition Zposition Zrotation Yrotation Xrotation
	JOINT lhip
	{
		OFFSET 0.058581 -0.082280 -0.017664
		CHANNELS 3 Zrotation Yrotation Xrotation
		JOINT lknee
		{
			OFFSET 0.043451 -0.386469 0.008037
			CHANNELS 3 Zrotation Yrotation Xrotation
			JOINT lankle
			{
				OFFSET -0.014790 -0.426874 -0.037428
				CHANNELS 3 Zrotation Yrotation Xrotation
				JOINT ltoe
				{
					OFFSET 0.041054 -0.060286 0.122042
					CHANNELS 3 Zrotation Yrotation Xrotation
					End Site
					{
						OFFSET 0.000000 0.000000 0.000000
					}
				}
			}
		}
	}
	JOINT rhip
	{
		OFFSET -0.060310 -0.090513 -0.013543
		CHANNELS 3 Zrotation Yrotation Xrotation
		JOINT rknee
		{
			OFFSET -0.043257 -0.383688 -0.004843
			CHANNELS 3 Zrotation Yrotation Xrotation
			JOINT rankle
			{
				OFFSET 0.019056 -0.420046 -0.034562
				CHANNELS 3 Zrotation Yrotation Xrotation
				JOINT rtoe
				{
					OFFSET -0.034840 -0.062106 0.130323
					CHANNELS 3 Zrotation Yrotation Xrotation
					End Site
					{
						OFFSET 0.000000 0.000000 0.000000
					}
				}
			}
		}
	}
	JOINT lowerback
	{
		OFFSET 0.004439 0.124404 -0.038385
		CHANNELS 3 Zrotation Yrotation Xrotation
		JOINT upperback
		{
			OFFSET 0.004488 0.137956 0.026820
			CHANNELS 3 Zrotation Yrotation Xrotation
			JOINT chest
			{
				OFFSET -0.002265 0.056032 0.002855
				CHANNELS 3 Zrotation Yrotation Xrotation
				JOINT lowerneck
				{
					OFFSET -0.013390 0.211636 -0.033468
					CHANNELS 3 Zrotation Yrotation Xrotation
					JOINT upperneck
					{
						OFFSET 0.010113 0.088937 0.050410
						CHANNELS 3 Zrotation Yrotation Xrotation
						End Site
						{
							OFFSET 0.000000 0.000000 0.000000
						}
					}
				}
				JOINT lclavicle
				{
					OFFSET 0.071702 0.114000 -0.018898
					CHANNELS 3 Zrotation Yrotation Xrotation
					JOINT lshoulder
					{
						OFFSET 0.122921 0.045205 -0.019046
						CHANNELS 3 Zrotation Yrotation Xrotation
						JOINT lelbow
						{
							OFFSET 0.255332 -0.015649 -0.022946
							CHANNELS 3 Zrotation Yrotation Xrotation
							JOINT lwrist
							{
								OFFSET 0.265709 0.012698 -0.007375
								CHANNELS 3 Zrotation Yrotation Xrotation
								End Site
								{
									OFFSET 0.000000 0.000000 0.000000
								}
							}
						}
					}
				}
				JOINT rclavicle
				{
					OFFSET -0.082954 0.112472 -0.023707
					CHANNELS 3 Zrotation Yrotation Xrotation
					JOINT rshoulder
					{
						OFFSET -0.113228 0.046853 -0.008472
						CHANNELS 3 Zrotation Yrotation Xrotation
						JOINT relbow
						{
							OFFSET -0.260127 -0.014369 -0.031269
							CHANNELS 3 Zrotation Yrotation Xrotation
							JOINT rwrist
							{
								OFFSET -0.269108 0.006794 -0.006027
								CHANNELS 3 Zrotation Yrotation Xrotation
								End Site
								{
									OFFSET 0.000000 0.000000 0.000000
								}
							}
						}
					}
				}
			}
		}
	}
}
MOTION
Frames: 11
Frame Time: 0.033333
0.340536 0.177015 0.971159 134.331259 -0.392204 92.027612 5.524617 -6.768331 -21.860751 -17.016135 -11.787697 57.838162 -4.695689 0.790280 -21.453096 0.000000 -0.000000 0.000000 -1.155365 4.197574 -15.196689 3.130553 9.120131 30.697552 0.260721 -1.587008 -24.579225 0.000000 -0.000000 0.000000 3.034907 3.563180 26.261101 4.438464 1.093154 1.467859 1.890674 0.478331 4.500674 -2.195606 11.590894 -2.516955 -10.546952 6.032161 3.053559 -21.896046 10.418650 4.255863 -56.540962 10.996261 11.239514 -3.708219 -48.207565 29.372197 -3.025371 -12.418199 -17.774889 21.585672 -3.389455 3.057104 49.052111 2.359310 10.677347 -18.370095 46.244120 -2.104712 1.547457 7.549784 -11.714825 
0.360070 0.192297 0.979195 133.977955 -0.581268 92.309111 3.988261 -8.686045 -23.814287 -15.492102 -11.815470 50.070863 -4.265636 1.491282 -21.639325 0.000000 -0.000000 0.000000 -0.587171 3.662626 -11.960198 2.125524 9.897467 27.048912 0.792749 -1.912581 -23.946726 0.000000 -0.000000 0.000000 3.084666 5.093677 26.279759 4.060038 1.133318 0.841201 1.882366 0.886565 5.027781 -2.130067 11.803765 -2.556202 -10.505880 5.389331 3.041719 -20.837279 11.493536 4.206554 -56.253008 12.657570 11.333780 -4.701905 -48.118095 29.841079 -3.143775 -12.572521 -18.562600 20.874547 -3.513555 2.584787 49.582377 3.706504 11.249559 -20.020455 48.614336 -4.770920 0.019839 7.732457 -13.143513 
0.379991 0.208192 0.986629 134.143686 -0.673110 92.803331 2.888426 -9.923804 -24.901929 -12.892632 -11.016638 39.842585 -3.650224 2.997262 -21.080497 0.000000 -0.000000 0.000000 -0.218032 2.976917 -8.779219 1.361065 10.116018 23.257706 1.381359 -2.074738 -23.078723 0.000000 -0.000000 0.000000 3.038693 6.333824 25.694340 3.642455 1.036979 0.416787 1.853001 1.096577 5.434766 -2.166973 12.004391 -2.565638 -10.281869 4.807060 2.905695 -19.783391 12.451065 4.236079 -55.689924 13.594143 11.226296 -4.752706 -48.586801 28.985870 -2.836167 -12.615138 -19.534817 20.313696 -4.006201 2.204951 50.244004 4.682254 11.900512 -21.852235 51.313113 -7.376553 -1.848537 8.067133 -14.224237 
0.400742 0.224846 0.991675 134.723689 -0.471980 93.373167 1.842234 -9.853272 -25.093800 -9.911112 -9.083363 29.156653 -2.945762 4.875767 -19.537500 0.000000 -0.000000 0.000000 0.141389 2.297111 -5.825764 1.037152 9.895055 19.939370 1.915534 -1.837039 -22.149393 0.000000 -0.000000 0.000000 2.879314 7.051659 24.505229 3.242860 0.957274 0.381343 1.824008 1.292478 5.625098 -2.141887 12.213834 -2.522491 -9.828246 4.372754 3.016875 -18.832578 13.120661 4.283753 -55.084914 13.902307 10.863119 -4.100844 -49.330717 27.361684 -2.631940 -12.583270 -20.093067 19.886809 -4.552864 2.032535 50.925580 5.277379 12.418797 -23.453396 53.905635 -9.480662 -3.247573 8.512925 -15.130910 
0.422570 0.243019 0.993360 135.597433 0.127995 93.685042 0.436001 -8.622182 -24.505923 -7.322183 -7.148966 21.022783 -2.061508 6.421301 -17.097510 0.000000 -0.000000 0.000000 0.770539 1.613794 -2.962116 1.103502 9.542448 17.607667 2.190514 -1.424135 -21.446926 0.000000 -0.000000 0.000000 2.623261 7.234436 23.085311 2.958024 0.858947 0.593598 1.847180 1.485130 5.649162 -1.868441 12.404777 -2.253334 -9.121731 4.431632 3.575125 -18.060740 13.475901 4.282512 -54.701565 13.777442 10.246386 -2.880681 -50.094980 25.225397 -2.500197 -12.472414 -20.333301 19.500741 -4.849443 1.967565 51.513831 5.568661 12.739971 -24.205577 55.833585 -10.526654 -3.635195 8.970451 -15.980748 
0.445870 0.262925 0.991542 136.556757 1.066750 93.558796 -1.002515 -7.080293 -23.247110 -5.597482 -6.335849 17.035838 -0.687511 7.226661 -13.843313 0.000000 -0.000000 0.000000 1.733502 1.132065 -0.258573 1.550372 9.159886 16.825989 2.240907 -1.067091 -21.230961 0.000000 -0.000000 0.000000 2.090442 7.013084 21.609774 2.844501 0.761277 0.908670 1.956775 1.592388 5.639770 -1.090929 12.765028 -1.743165 -8.196844 5.110565 4.704425 -17.525245 13.605538 4.147043 -54.589841 13.276144 9.539993 -1.147860 -50.621918 22.776155 -2.226372 -12.193607 -20.280326 19.217081 -4.874589 1.811452 51.990211 5.644188 13.030615 -23.782685 56.847941 -10.100518 -2.971768 9.324641 -16.789966 
0.464548 0.278733 0.987693 137.157691 2.008434 93.180681 -1.447536 -6.436415 -21.646763 -5.138000 -6.587206 16.215400 0.767837 7.333999 -11.412574 0.000000 -0.000000 0.000000 2.615183 0.994458 1.300435 2.322569 8.828031 17.874780 2.243767 -0.677213 -21.410170 0.000000 -0.000000 0.000000 1.463403 6.759391 20.559348 2.924267 0.716602 1.146005 2.082987 1.596688 5.648244 -0.148750 13.169099 -1.179648 -7.461022 5.709634 5.638513 -17.324577 13.576082 3.833347 -54.564844 12.676871 9.144955 0.472879 -50.667219 20.615571 -2.018654 -11.908198 -19.996816 19.148068 -4.751687 1.544939 52.282394 5.521112 13.339412 -22.995873 57.010100 -9.067871 -1.979967 9.457599 -17.165161 
0.490156 0.300240 0.980270 137.675641 3.393474 92.373932 -1.296378 -6.109804 -19.525023 -5.020149 -7.702192 17.879976 4.109728 7.522823 -11.222448 0.000000 -0.000000 0.000000 3.527562 1.019200 1.995618 4.266868 8.584431 22.485246 3.194893 0.701266 -21.395379 0.000000 -0.000000 0.000000 0.298569 6.425785 19.612095 3.136634 0.652620 1.200322 2.185866 1.573525 5.850540 1.498011 13.679462 -0.624714 -6.574943 6.489420 6.618891 -17.381436 13.324875 3.078876 -54.460385 11.437539 8.703682 2.973231 -50.217619 17.255790 -1.624290 -11.474254 -19.301341 19.391887 -4.482555 0.950067 52.669119 5.260336 13.851407 -21.939247 56.536489 -7.602272 -0.282808 9.539399 -16.783212 
0.514938 0.322204 0.973278 137.906216 4.490160 91.009641 -0.486335 -7.217133 -18.291074 -5.412878 -8.163537 22.448452 5.737696 8.932828 -14.282361 0.000000 -0.000000 0.000000 3.379899 1.551114 0.739143 7.353259 7.983076 31.029354 6.490157 3.829148 -18.402508 0.000000 -0.000000 0.000000 -0.834996 6.378035 19.858976 3.215362 0.348913 1.349983 1.884699 1.511763 5.986862 3.046116 14.371244 -0.736094 -5.768345 7.030924 7.145212 -18.135423 12.238985 1.832961 -54.118914 9.595817 8.423780 6.659588 -48.905951 12.219650 -1.288349 -11.316490 -17.767380 20.199786 -4.012063 0.285153 53.097075 5.023160 14.384903 -21.919218 55.318879 -7.090593 1.373980 9.477588 -15.246979 
0.537752 0.344536 0.967986 138.309160 5.048118 89.275538 0.353941 -9.385990 -16.434265 -6.864693 -7.787676 26.263053 6.433455 10.727114 -17.407074 0.000000 -0.000000 0.000000 2.143209 2.382438 -2.084098 10.717294 6.760037 41.254236 11.311935 7.124156 -11.336011 0.000000 -0.000000 0.000000 -1.523803 6.430359 20.776913 3.018649 0.025211 2.074479 1.161169 1.352212 5.577055 3.580819 14.708542 -0.610149 -4.535687 7.009832 6.980285 -18.732756 9.884149 0.991115 -53.984177 7.042406 8.327409 10.891891 -47.061333 6.863251 -0.731086 -11.303369 -15.811208 20.824775 -3.118838 0.432833 53.881049 4.277984 14.551805 -22.993947 53.921141 -7.492917 2.162188 9.294625 -13.232533 
0.562617 0.370999 0.962035 139.815363 5.493256 87.880988 0.295640 -8.693980 -13.783030 -8.164708 -9.157594 28.836578 7.940763 11.082173 -20.731177 0.000000 -0.000000 0.000000 1.053844 2.857837 -7.396974 12.229770 4.939762 52.813207 12.270220 6.404234 -6.928188 0.000000 -0.000000 0.000000 -1.969458 5.698670 21.707489 2.502428 0.247162 2.487464 0.287918 0.828085 5.440228 3.608268 14.631895 -0.470535 -3.308214 7.037146 6.498009 -18.870269 6.861786 0.492384 -53.375534 2.891152 8.346720 14.064842 -47.066601 3.807743 1.023210 -11.351273 -14.633181 21.211354 -2.226476 0.644345 54.634283 2.755133 14.745837 -22.938104 52.763531 -6.741280 2.211698 9.406263 -11.211309 
